<mxfile host="app.diagrams.net" agent="Mozilla/5.0 (Macintosh; Intel Mac OS X 10_15_7) AppleWebKit/537.36 (KHTML, like Gecko) Chrome/137.0.0.0 Safari/537.36" version="28.0.6">
  <diagram name="Page-1" id="6AggVy5TcJk6lYoFyexI">
    <mxGraphModel dx="823" dy="533" grid="1" gridSize="10" guides="1" tooltips="1" connect="1" arrows="1" fold="1" page="1" pageScale="1" pageWidth="1169" pageHeight="827" math="0" shadow="0">
      <root>
        <mxCell id="0" />
        <mxCell id="1" parent="0" />
        <mxCell id="rmC_TrqbJROS_ImHzdRA-17" value="" style="edgeStyle=orthogonalEdgeStyle;rounded=0;orthogonalLoop=1;jettySize=auto;html=1;" edge="1" parent="1" source="rmC_TrqbJROS_ImHzdRA-1" target="rmC_TrqbJROS_ImHzdRA-3">
          <mxGeometry relative="1" as="geometry" />
        </mxCell>
        <mxCell id="rmC_TrqbJROS_ImHzdRA-1" value="Low Cut Filter" style="rounded=1;whiteSpace=wrap;html=1;" vertex="1" parent="1">
          <mxGeometry x="240" y="90" width="120" height="60" as="geometry" />
        </mxCell>
        <mxCell id="rmC_TrqbJROS_ImHzdRA-18" value="" style="edgeStyle=orthogonalEdgeStyle;rounded=0;orthogonalLoop=1;jettySize=auto;html=1;" edge="1" parent="1" source="rmC_TrqbJROS_ImHzdRA-3" target="rmC_TrqbJROS_ImHzdRA-4">
          <mxGeometry relative="1" as="geometry" />
        </mxCell>
        <mxCell id="rmC_TrqbJROS_ImHzdRA-3" value="Resonant&lt;div&gt;Low Pass&lt;div&gt;Filter&lt;/div&gt;&lt;/div&gt;" style="rounded=1;whiteSpace=wrap;html=1;" vertex="1" parent="1">
          <mxGeometry x="390" y="90" width="120" height="60" as="geometry" />
        </mxCell>
        <mxCell id="rmC_TrqbJROS_ImHzdRA-20" value="" style="edgeStyle=orthogonalEdgeStyle;rounded=0;orthogonalLoop=1;jettySize=auto;html=1;" edge="1" parent="1" source="rmC_TrqbJROS_ImHzdRA-4" target="rmC_TrqbJROS_ImHzdRA-10">
          <mxGeometry relative="1" as="geometry" />
        </mxCell>
        <mxCell id="rmC_TrqbJROS_ImHzdRA-4" value="Power&lt;div&gt;Amplifier&lt;/div&gt;" style="rounded=1;whiteSpace=wrap;html=1;" vertex="1" parent="1">
          <mxGeometry x="540" y="90" width="120" height="60" as="geometry" />
        </mxCell>
        <mxCell id="rmC_TrqbJROS_ImHzdRA-27" style="edgeStyle=orthogonalEdgeStyle;rounded=0;orthogonalLoop=1;jettySize=auto;html=1;entryX=0;entryY=0.5;entryDx=0;entryDy=0;" edge="1" parent="1" source="rmC_TrqbJROS_ImHzdRA-5" target="rmC_TrqbJROS_ImHzdRA-1">
          <mxGeometry relative="1" as="geometry">
            <Array as="points">
              <mxPoint x="185" y="120" />
            </Array>
          </mxGeometry>
        </mxCell>
        <mxCell id="rmC_TrqbJROS_ImHzdRA-5" value="" style="shape=sumEllipse;perimeter=ellipsePerimeter;whiteSpace=wrap;html=1;backgroundOutline=1;" vertex="1" parent="1">
          <mxGeometry x="170" y="160" width="30" height="30" as="geometry" />
        </mxCell>
        <mxCell id="rmC_TrqbJROS_ImHzdRA-8" value="Plate" style="shape=tape;whiteSpace=wrap;html=1;strokeWidth=2;size=0.19" vertex="1" parent="1">
          <mxGeometry x="550" y="220" width="100" height="65" as="geometry" />
        </mxCell>
        <mxCell id="rmC_TrqbJROS_ImHzdRA-21" value="" style="edgeStyle=orthogonalEdgeStyle;rounded=0;orthogonalLoop=1;jettySize=auto;html=1;" edge="1" parent="1" source="rmC_TrqbJROS_ImHzdRA-9" target="rmC_TrqbJROS_ImHzdRA-11">
          <mxGeometry relative="1" as="geometry" />
        </mxCell>
        <mxCell id="rmC_TrqbJROS_ImHzdRA-9" value="Piezo&lt;div&gt;Microphone&lt;/div&gt;" style="verticalLabelPosition=middle;shadow=0;dashed=0;align=right;html=1;verticalAlign=middle;shape=mxgraph.electrical.radio.microphone_1;direction=west;labelPosition=left;" vertex="1" parent="1">
          <mxGeometry x="475" y="235" width="35" height="35" as="geometry" />
        </mxCell>
        <mxCell id="rmC_TrqbJROS_ImHzdRA-10" value="" style="pointerEvents=1;verticalLabelPosition=bottom;shadow=0;dashed=0;align=center;html=1;verticalAlign=top;shape=mxgraph.electrical.electro-mechanical.loudspeaker;direction=south;" vertex="1" parent="1">
          <mxGeometry x="575" y="170" width="50" height="25" as="geometry" />
        </mxCell>
        <mxCell id="rmC_TrqbJROS_ImHzdRA-24" style="edgeStyle=orthogonalEdgeStyle;rounded=0;orthogonalLoop=1;jettySize=auto;html=1;" edge="1" parent="1" source="rmC_TrqbJROS_ImHzdRA-11" target="rmC_TrqbJROS_ImHzdRA-22">
          <mxGeometry relative="1" as="geometry" />
        </mxCell>
        <mxCell id="rmC_TrqbJROS_ImHzdRA-25" style="edgeStyle=orthogonalEdgeStyle;rounded=0;orthogonalLoop=1;jettySize=auto;html=1;" edge="1" parent="1" source="rmC_TrqbJROS_ImHzdRA-11" target="rmC_TrqbJROS_ImHzdRA-23">
          <mxGeometry relative="1" as="geometry" />
        </mxCell>
        <mxCell id="rmC_TrqbJROS_ImHzdRA-32" style="edgeStyle=orthogonalEdgeStyle;rounded=0;orthogonalLoop=1;jettySize=auto;html=1;entryX=1;entryY=0.5;entryDx=0;entryDy=0;" edge="1" parent="1" source="rmC_TrqbJROS_ImHzdRA-11" target="rmC_TrqbJROS_ImHzdRA-26">
          <mxGeometry relative="1" as="geometry" />
        </mxCell>
        <mxCell id="rmC_TrqbJROS_ImHzdRA-11" value="High Gain&lt;div&gt;Pre-amp&lt;/div&gt;" style="rounded=1;whiteSpace=wrap;html=1;" vertex="1" parent="1">
          <mxGeometry x="432.5" y="320" width="120" height="60" as="geometry" />
        </mxCell>
        <mxCell id="rmC_TrqbJROS_ImHzdRA-30" style="edgeStyle=orthogonalEdgeStyle;rounded=0;orthogonalLoop=1;jettySize=auto;html=1;entryX=1;entryY=0.5;entryDx=0;entryDy=0;" edge="1" parent="1" source="rmC_TrqbJROS_ImHzdRA-12" target="rmC_TrqbJROS_ImHzdRA-5">
          <mxGeometry relative="1" as="geometry" />
        </mxCell>
        <mxCell id="rmC_TrqbJROS_ImHzdRA-12" value="Multiplier" style="rounded=1;whiteSpace=wrap;html=1;" vertex="1" parent="1">
          <mxGeometry x="240" y="235" width="120" height="60" as="geometry" />
        </mxCell>
        <mxCell id="rmC_TrqbJROS_ImHzdRA-35" style="edgeStyle=orthogonalEdgeStyle;rounded=0;orthogonalLoop=1;jettySize=auto;html=1;entryX=0;entryY=0.5;entryDx=0;entryDy=0;" edge="1" parent="1" source="rmC_TrqbJROS_ImHzdRA-13" target="rmC_TrqbJROS_ImHzdRA-5">
          <mxGeometry relative="1" as="geometry" />
        </mxCell>
        <mxCell id="rmC_TrqbJROS_ImHzdRA-13" value="Input 1" style="text;html=1;align=center;verticalAlign=middle;resizable=0;points=[];autosize=1;strokeColor=none;fillColor=none;" vertex="1" parent="1">
          <mxGeometry x="60" y="160" width="60" height="30" as="geometry" />
        </mxCell>
        <mxCell id="rmC_TrqbJROS_ImHzdRA-33" style="edgeStyle=orthogonalEdgeStyle;rounded=0;orthogonalLoop=1;jettySize=auto;html=1;entryX=0;entryY=0.5;entryDx=0;entryDy=0;exitX=1;exitY=0.5;exitDx=0;exitDy=0;exitPerimeter=0;" edge="1" parent="1" source="rmC_TrqbJROS_ImHzdRA-14" target="rmC_TrqbJROS_ImHzdRA-26">
          <mxGeometry relative="1" as="geometry">
            <Array as="points">
              <mxPoint x="140" y="220" />
              <mxPoint x="140" y="365" />
            </Array>
          </mxGeometry>
        </mxCell>
        <mxCell id="rmC_TrqbJROS_ImHzdRA-36" style="edgeStyle=orthogonalEdgeStyle;rounded=0;orthogonalLoop=1;jettySize=auto;html=1;entryX=0.518;entryY=1.026;entryDx=0;entryDy=0;entryPerimeter=0;" edge="1" parent="1" source="rmC_TrqbJROS_ImHzdRA-14" target="rmC_TrqbJROS_ImHzdRA-5">
          <mxGeometry relative="1" as="geometry">
            <mxPoint x="140" y="199.99999999999997" as="targetPoint" />
          </mxGeometry>
        </mxCell>
        <mxCell id="rmC_TrqbJROS_ImHzdRA-14" value="Input 2" style="text;html=1;align=center;verticalAlign=middle;resizable=0;points=[];autosize=1;strokeColor=none;fillColor=none;" vertex="1" parent="1">
          <mxGeometry x="60" y="205" width="60" height="30" as="geometry" />
        </mxCell>
        <mxCell id="rmC_TrqbJROS_ImHzdRA-22" value="Output 1" style="text;html=1;align=center;verticalAlign=middle;resizable=0;points=[];autosize=1;strokeColor=none;fillColor=none;" vertex="1" parent="1">
          <mxGeometry x="590" y="314" width="70" height="30" as="geometry" />
        </mxCell>
        <mxCell id="rmC_TrqbJROS_ImHzdRA-23" value="Output 1" style="text;html=1;align=center;verticalAlign=middle;resizable=0;points=[];autosize=1;strokeColor=none;fillColor=none;" vertex="1" parent="1">
          <mxGeometry x="590" y="350" width="70" height="30" as="geometry" />
        </mxCell>
        <mxCell id="rmC_TrqbJROS_ImHzdRA-34" style="edgeStyle=orthogonalEdgeStyle;rounded=0;orthogonalLoop=1;jettySize=auto;html=1;entryX=0.5;entryY=1;entryDx=0;entryDy=0;" edge="1" parent="1" source="rmC_TrqbJROS_ImHzdRA-26" target="rmC_TrqbJROS_ImHzdRA-12">
          <mxGeometry relative="1" as="geometry" />
        </mxCell>
        <mxCell id="rmC_TrqbJROS_ImHzdRA-26" value="Source&#xa;Select" style="rhombus;" vertex="1" parent="1">
          <mxGeometry x="260" y="337" width="70" height="56" as="geometry" />
        </mxCell>
      </root>
    </mxGraphModel>
  </diagram>
</mxfile>
